<svg xmlns="http://www.w3.org/2000/svg" width="24" height="24"><path fill="#4285F4" d="M23.764 12.276a14.128 14.128 0 0 0-.207-2.438H12.236v4.62h6.48a5.56 5.56 0 0 1-2.397 3.646v2.998h3.867c2.271-2.09 3.576-5.176 3.576-8.827l.002.001z"/><path fill="#34A853" d="M12.236 24c3.237 0 5.966-1.063 7.956-2.896l-3.867-2.998c-1.075.73-2.465 1.146-4.082 1.146-3.13 0-5.785-2.109-6.737-4.952H1.513v3.091A12.003 12.003 0 0 0 12.236 24z"/><path fill="#FBBC04" d="M5.5 14.3a7.182 7.182 0 0 1 0-4.594V6.614H1.513a12.01 12.01 0 0 0 0 10.776L5.5 14.3z"/><path fill="#EA4335" d="M12.236 4.75a6.517 6.517 0 0 1 4.604 1.799l3.428-3.427a11.54 11.54 0 0 0-8.031-3.12A12 12 0 0 0 1.514 6.614L5.5 9.706C6.447 6.86 9.106 4.75 12.236 4.75z"/></svg>